<?xml version="1.0" encoding="UTF-8"?>
<svg xmlns="http://www.w3.org/2000/svg" xmlns:xlink="http://www.w3.org/1999/xlink" id="Calque_1" viewBox="0 0 763.51 312.72">
  <defs>
    <style>.cls-1{fill:url(#Dégradé_sans_nom_3);}.cls-1,.cls-2,.cls-3,.cls-4{stroke-width:0px;}.cls-2{fill:url(#Dégradé_sans_nom_3-3);}.cls-3{fill:url(#Dégradé_sans_nom_3-2);}.cls-4{fill:#fffaf5;}</style>
    <linearGradient id="Dégradé_sans_nom_3" x1="4373.37" y1="8138.4" x2="4372.36" y2="8139.68" gradientTransform="translate(-607559.06 1390301.22) scale(138.98 -170.8)" gradientUnits="userSpaceOnUse">
      <stop offset="0" stop-color="#f04d12"></stop>
      <stop offset="1" stop-color="#d7231c"></stop>
    </linearGradient>
    <linearGradient id="Dégradé_sans_nom_3-2" x1="4376.63" y1="8151.88" x2="4375.61" y2="8153.17" gradientTransform="translate(-675891.51 1053707.3) scale(154.49 -129.22)" xlink:href="#Dégradé_sans_nom_3"></linearGradient>
    <linearGradient id="Dégradé_sans_nom_3-3" x1="4374.6" y1="8144.81" x2="4373.59" y2="8146.09" gradientTransform="translate(-626862.44 1209538.25) scale(143.37 -148.47)" xlink:href="#Dégradé_sans_nom_3"></linearGradient>
  </defs>
  <g id="Groupe_123">
    <g id="Groupe_119">
      <path id="Tracé_52" class="cls-1" d="M22.81,130.06l98.89,56.94.06,55.27c0,1.04.56,2,1.46,2.51l9.63,5.54c1.39.8,3.16.32,3.96-1.07.25-.44.39-.94.39-1.45l-.07-65.25c0-2.77-1.48-5.32-3.88-6.7l-98.87-56.96-.03-29.33,59.84-34.64,53.99,31.1c.9.52,2,.52,2.9,0l9.63-5.55c1.39-.8,1.87-2.58,1.07-3.96-.26-.44-.62-.81-1.07-1.07l-51.1-29.48,40.56-23.46,53.96,31.13c.9.52,2.01.52,2.9,0l9.62-5.56c1.39-.8,1.86-2.58,1.06-3.97-.25-.44-.62-.81-1.06-1.06L154.02,6.92c-2.39-1.38-5.35-1.38-7.74,0L22.77,78.38c-2.4,1.38-3.87,3.94-3.87,6.71l.04,38.31c0,2.75,1.48,5.29,3.87,6.65Z"></path>
      <path id="Tracé_53" class="cls-3" d="M191.09,165.82l47.83-27.68c.9-.52,1.46-1.49,1.46-2.53l-.02-11.08c0-1.61-1.31-2.92-2.92-2.91-.51,0-1.01.14-1.46.39l-56.46,32.68c-2.4,1.38-3.87,3.94-3.87,6.71l.11,114.1-25.39,14.7-59.92-34.51-.05-62.3c0-1.04-.55-1.99-1.45-2.51l-9.62-5.56c-1.39-.8-3.17-.33-3.97,1.06-.25.44-.39.94-.39,1.45l.02,58.99-40.59-23.39-.03-62.29c0-1.04-.55-2-1.45-2.51l-10.18-5.87c-1.21-.7-2.77-.28-3.47.93-.22.39-.34.83-.34,1.27l.05,72.92c0,2.77,1.48,5.32,3.88,6.7l123.64,71.24c2.4,1.38,5.35,1.38,7.74,0l33.16-19.19c2.38-1.38,3.84-3.93,3.83-6.68l-.14-114.11Z"></path>
      <path id="Tracé_54" class="cls-2" d="M277.7,78.24l-33.2-19.12c-2.38-1.37-5.32-1.37-7.7.02h0l-98.75,57.17-47.89-27.59c-.9-.52-2.01-.52-2.91,0l-9.62,5.57c-1.39.8-1.86,2.58-1.06,3.97.25.44.62.81,1.06,1.06l56.55,32.56c2.4,1.38,5.35,1.38,7.74,0l98.76-57.15,25.42,14.64.09,69.15-53.93,31.2c-.9.52-1.45,1.48-1.45,2.51v11.11c-.01,1.6,1.29,2.9,2.89,2.91.51,0,1.01-.13,1.46-.39l51.08-29.51.03,46.86-53.93,31.17c-.9.52-1.45,1.48-1.45,2.52v11.11c0,1.6,1.3,2.9,2.91,2.9.51,0,1.01-.13,1.45-.39l62.58-36.19c2.4-1.38,3.87-3.94,3.87-6.71l-.13-142.69c0-2.77-1.48-5.32-3.88-6.7"></path>
    </g>
    <g id="Groupe_122">
      <path id="Tracé_20363" class="cls-4" d="M395.85,103.08v-11.09h-52v71.24h13.23v-27.27h34.4v-11.19h-34.4v-21.68h38.77ZM429.03,152.14v-19.64h34.4v-10.89h-34.4v-18.52h38.77v-11.09h-52v71.24h53.43v-11.09h-40.2ZM551.96,163.23l-16.38-23.41c9.67-3.77,15.16-11.7,15.16-22.49,0-15.77-11.6-25.34-30.33-25.34h-29.31v71.24h13.23v-20.76h16.08c.92.02,1.83-.02,2.75-.1l14.55,20.86h14.25ZM537.41,117.33c0,8.96-6,14.25-17.61,14.25h-15.47v-28.39h15.47c11.6,0,17.61,5.19,17.61,14.15ZM633.48,163.23l-16.38-23.41c9.67-3.77,15.16-11.7,15.16-22.49,0-15.77-11.6-25.34-30.33-25.34h-29.32v71.24h13.23v-20.76h16.08c.92.02,1.83-.02,2.75-.1l14.56,20.86h14.25ZM618.93,117.33c0,8.96-6,14.25-17.61,14.25h-15.47v-28.39h15.47c11.6,0,17.61,5.19,17.61,14.15ZM654.14,163.23h13.22v-71.24h-13.23v71.24ZM715.81,164.25c19.54,0,28.8-9.77,28.8-21.17,0-26.15-42.23-16.28-42.23-31.45,0-5.39,4.48-9.67,15.47-9.67,6.92.12,13.69,2.05,19.64,5.6l4.17-10.28c-6.21-4.07-15.16-6.31-23.71-6.31-19.54,0-28.7,9.77-28.7,21.27,0,26.46,42.34,16.38,42.34,31.75,0,5.29-4.68,9.26-15.77,9.26-8.47-.02-16.72-2.77-23.51-7.84l-4.59,10.28c5.91,5.09,17,8.55,28.09,8.55h0Z"></path>
      <path id="Tracé_20362" class="cls-4" d="M394.03,222h2.8l-11.47-25.08h-2.62l-11.47,25.08h2.76l3.01-6.7h13.98l3.01,6.7ZM378.02,213.15l6.02-13.47,6.02,13.47h-12.04ZM402.42,222h16.7v-2.29h-14.05v-22.79h-2.65v25.08ZM424.96,222h16.7v-2.29h-14.05v-22.79h-2.65v25.08ZM448.29,222.18c1.08-.01,1.94-.89,1.94-1.97,0-1.06-.85-1.93-1.92-1.94,0,0-.01,0-.02,0-1.05,0-1.9.85-1.9,1.89,0,.01,0,.03,0,.04-.02,1.06.82,1.95,1.88,1.97,0,0,.01,0,.02,0ZM457.61,222h10.21c8.03,0,13.44-5.16,13.44-12.54s-5.41-12.54-13.44-12.54h-10.21v25.08ZM460.26,219.71v-20.5h7.42c6.67,0,10.97,4.23,10.97,10.25s-4.3,10.25-10.97,10.25h-7.42ZM507.02,222h2.8l-11.47-25.08h-2.62l-11.47,25.08h2.76l3.01-6.7h13.98l3.01,6.7ZM491,213.15l6.02-13.47,6.02,13.47h-12.04ZM519.03,222h2.65v-22.79h8.82v-2.29h-20.28v2.29h8.82v22.79ZM553.64,222h2.8l-11.47-25.08h-2.62l-11.47,25.08h2.76l3.01-6.7h13.98l3.01,6.7ZM537.62,213.15l6.02-13.47,6.02,13.47h-12.04ZM562.96,222.18c1.08-.01,1.94-.89,1.94-1.97,0-1.06-.85-1.93-1.92-1.94,0,0-.01,0-.02,0-1.05,0-1.9.85-1.9,1.89,0,.01,0,.03,0,.04-.02,1.06.82,1.95,1.88,1.97,0,0,.01,0,.02,0ZM590.62,196.91v20.35l-16.16-20.35h-2.19v25.08h2.65v-20.35l16.12,20.35h2.19v-25.08h-2.62ZM605.49,219.71v-9.32h12.97v-2.26h-12.97v-8.92h14.55v-2.29h-17.2v25.08h17.74v-2.29h-15.09ZM630.9,219.71v-9.32h12.97v-2.26h-12.97v-8.92h14.55v-2.29h-17.2v25.08h17.74v-2.29h-15.09ZM653.66,222h10.21c8.03,0,13.44-5.16,13.44-12.54s-5.41-12.54-13.44-12.54h-10.21v25.08ZM656.31,219.71v-20.5h7.42c6.67,0,10.97,4.23,10.97,10.25s-4.3,10.25-10.97,10.25h-7.42ZM691.61,222.21c6.41,0,9.35-3.15,9.35-6.84,0-9.14-15.44-4.98-15.44-11.86,0-2.51,2.04-4.55,6.63-4.55,2.44.03,4.83.75,6.88,2.08l.9-2.11c-2.32-1.48-5.02-2.25-7.78-2.22-6.38,0-9.25,3.19-9.25,6.88,0,9.28,15.44,5.05,15.44,11.93,0,2.47-2.04,4.44-6.74,4.44-3.04.04-5.99-1.04-8.28-3.05l-1.04,2.04c2.59,2.22,5.91,3.38,9.32,3.26h0Z"></path>
    </g>
  </g>
</svg>
